<svg version="1.1" id="Layer_1" xmlns="http://www.w3.org/2000/svg" xmlns:xlink="http://www.w3.org/1999/xlink" x="0px" y="0px" width="64px" height="64px" viewBox="0 0 64 64" enable-background="new 0 0 64 64" xml:space="preserve" fill="#a551f5">
<g id="REPEAT_2_1_" enable-background="new    " fill="#a551f5">
	<g id="REPEAT_2" fill="#a551f5">
		<g fill="#a551f5">
			<path d="M61,29c-1.657,0-3,1.343-3,3c0,14.359-11.641,26-26,26c-8.768,0-16.506-4.348-21.207-11H16c1.657,0,3-1.343,3-3&#10;&#9;&#9;&#9;&#9;s-1.343-3-3-3H3c-1.657,0-3,1.343-3,3v12c0,1.657,1.343,3,3,3s3-1.343,3-3v-5.454C11.789,58.68,21.254,64,32,64&#10;&#9;&#9;&#9;&#9;c17.673,0,32-14.327,32-32C64,30.343,62.657,29,61,29z M61,5c-1.657,0-3,1.343-3,3v5.412C52.204,5.299,42.732,0,32,0&#10;&#9;&#9;&#9;&#9;C14.327,0,0,14.327,0,32c0,1.657,1.343,3,3,3s3-1.343,3-3C6,17.641,17.641,6,32,6c8.76,0,16.469,4.355,21.167,11H48&#10;&#9;&#9;&#9;&#9;c-1.657,0-3,1.343-3,3s1.343,3,3,3h13c1.657,0,3-1.343,3-3V8C64,6.343,62.657,5,61,5z" fill="#a551f5"/>
		</g>
	</g>
</g>
</svg>